<svg xmlns="http://www.w3.org/2000/svg" width="32" height="32" viewBox="0 0 512 512">
  <rect width="512" height="512" rx="96" fill="#1e1b4b"/>
  <g transform="translate(57, 0)">
    <path d="M 176.12 481.52 C169.18,470.58 165.99,456.59 167.92,445.51 C169.60,435.89 172.49,430.46 180.05,422.70 L 186.68 415.89 L 186.02 393.20 C185.26,367.23 184.87,365.67 176.72,355.61 C169.80,347.09 168.76,344.19 168.24,332.00 C167.69,319.21 170.12,307.54 175.75,296.04 L 179.44 288.50 L 180.12 295.71 C180.64,301.38 181.82,305.12 185.64,313.21 L 190.50 323.50 L 190.58 344.00 L 190.67 364.50 L 195.00 376.96 C198.85,388.05 199.32,390.37 199.28,398.17 L 199.24 406.93 L 203.37 404.05 C209.02,400.12 215.66,393.09 216.94,389.68 C219.63,382.52 216.91,373.06 208.61,360.70 C205.58,356.19 201.85,349.80 200.30,346.50 C197.74,341.01 197.50,339.52 197.51,329.00 C197.53,320.41 198.00,316.11 199.40,312.00 C202.23,303.72 206.39,295.97 210.41,291.50 L 214.02 287.50 L 213.26 290.50 C212.84,292.15 212.52,297.55 212.54,302.50 C212.57,312.21 214.73,320.39 220.05,331.04 C221.57,334.08 223.87,339.93 225.16,344.04 C227.31,350.90 227.50,353.18 227.45,372.50 C227.39,394.59 226.00,406.29 221.77,420.00 C218.61,430.29 215.76,434.97 206.32,445.40 C186.22,467.62 184.27,470.35 180.95,480.97 L 179.24 486.45 L 176.12 481.52 ZM 235.03 444.35 C231.69,435.41 230.74,429.35 231.23,420.10 C231.94,406.75 234.30,402.56 250.29,386.16 C257.62,378.65 264.34,371.33 265.23,369.91 C271.29,360.15 269.21,349.69 257.71,332.22 C250.01,320.51 248.05,315.05 248.02,305.21 C248.00,298.10 248.50,295.64 251.50,287.86 C255.41,277.74 255.74,273.85 253.38,265.93 C251.08,258.20 252.01,249.23 256.05,240.19 C257.81,236.26 259.60,233.25 260.03,233.52 C261.49,234.42 266.99,251.07 267.63,256.55 C268.17,261.14 267.76,263.53 265.01,271.62 C260.87,283.82 261.16,288.92 266.59,298.74 C278.72,320.68 279.84,325.11 277.96,343.50 C276.30,359.77 271.25,388.91 268.38,398.82 C265.49,408.79 262.90,413.60 252.96,427.50 C249.02,433.00 244.16,440.30 242.15,443.73 C240.14,447.16 238.19,449.97 237.82,449.98 C237.45,449.99 236.19,447.46 235.03,444.35 ZM 156.53 430.75 C152.43,418.06 144.31,387.56 142.36,377.50 C140.40,367.40 140.13,337.53 141.84,319.50 C142.77,309.73 142.73,309.43 140.33,306.24 C138.98,304.44 136.69,300.39 135.23,297.24 C129.09,283.93 132.22,259.00 141.84,244.68 L 143.73 241.87 L 144.21 249.29 C144.71,257.22 146.36,261.36 155.45,277.50 C163.11,291.12 164.84,305.45 161.04,323.86 C159.98,329.01 158.92,333.42 158.68,333.65 C158.45,333.89 157.08,331.84 155.65,329.10 C154.22,326.36 152.14,322.63 151.03,320.81 L 149.01 317.50 L 149.01 322.00 C149.02,326.45 150.66,333.41 159.02,364.50 C163.28,380.36 163.32,380.66 163.41,398.00 C163.50,414.73 163.37,415.86 160.67,423.75 C157.80,432.09 157.26,433.01 156.53,430.75 ZM 119.70 403.25 C111.41,385.87 110.78,381.72 110.49,342.00 C110.34,321.89 109.75,304.58 109.07,300.50 C107.56,291.37 103.73,283.30 95.18,271.28 C82.66,253.67 79.04,243.84 79.01,227.41 C78.99,211.68 83.95,197.33 94.57,182.46 C101.04,173.39 101.42,173.37 100.63,182.15 C99.82,191.07 101.18,201.72 104.12,209.59 C105.30,212.75 109.20,219.64 112.79,224.89 C121.09,237.05 123.69,242.79 124.97,251.77 C126.02,259.19 125.49,265.11 121.46,291.00 C120.29,298.52 119.95,305.61 120.26,316.00 C120.64,328.52 121.20,332.44 124.35,344.77 C132.27,375.76 132.92,388.85 127.46,407.75 C126.63,410.64 125.58,413.00 125.14,413.00 C124.71,413.00 122.25,408.61 119.70,403.25 ZM 286.08 399.25 C287.78,391.92 287.14,382.66 284.34,374.38 C282.09,367.69 281.69,364.83 281.73,355.50 C281.77,344.33 283.64,333.53 286.49,328.02 C287.92,325.26 287.80,324.74 284.08,317.05 C276.10,300.55 276.13,280.00 284.15,264.88 L 286.47 260.50 L 287.05 270.00 C287.53,277.85 288.23,280.89 291.10,287.52 C294.53,295.42 305.39,314.51 307.05,315.53 C308.25,316.27 309.35,309.56 308.56,306.26 C308.20,304.74 305.37,298.43 302.26,292.24 C296.92,281.59 296.59,280.49 296.20,272.20 C295.80,263.93 297.74,251.86 299.79,249.81 C300.18,249.42 304.75,257.37 309.94,267.48 L 319.38 285.86 L 319.80 294.78 C320.30,305.19 318.64,312.26 314.11,319.01 L 311.16 323.39 L 312.98 326.96 C317.04,334.92 319.41,345.21 319.45,355.00 C319.47,363.38 319.15,365.17 316.72,370.15 C312.25,379.27 311.37,379.28 310.75,370.24 C310.10,360.66 307.03,352.99 298.74,340.18 C294.49,333.62 292.46,331.25 291.87,332.18 C290.06,335.02 291.24,339.21 297.19,351.11 C303.36,363.48 303.37,363.51 303.43,372.50 C303.50,384.22 301.13,389.81 292.82,397.51 C289.55,400.53 286.51,403.00 286.05,403.00 C285.59,403.00 285.60,401.31 286.08,399.25 ZM 232.69 353.32 C233.14,351.22 233.47,346.95 233.44,343.84 C233.38,338.01 233.43,338.15 223.54,319.50 C219.88,312.61 219.83,312.35 220.20,303.00 C220.54,294.56 220.95,292.82 223.87,287.36 C225.68,283.98 228.48,279.96 230.09,278.42 L 233.01 275.62 L 232.38 281.66 C231.61,289.02 232.73,292.74 238.23,301.18 C244.81,311.26 246.95,317.34 246.98,326.07 C247.01,338.40 242.47,349.32 235.00,354.84 L 231.88 357.15 L 232.69 353.32 ZM 168.07 280.67 C162.96,268.75 162.47,264.98 162.91,241.00 C163.80,192.29 163.70,188.94 161.28,184.38 C158.28,178.74 154.60,175.89 143.59,170.67 C132.78,165.55 126.57,160.29 122.50,152.83 C117.13,142.95 118.22,127.32 125.24,113.51 C128.58,106.96 136.52,95.77 140.65,91.80 L 144.50 88.10 L 144.63 95.80 C144.89,110.46 150.46,119.16 163.95,125.97 C171.68,129.88 177.80,135.37 180.13,140.50 C182.63,145.97 182.47,153.63 179.51,171.00 C174.94,197.77 175.21,211.61 180.60,229.07 C185.49,244.86 183.86,259.60 175.43,276.00 C170.18,286.20 170.39,286.07 168.07,280.67 ZM 201.72 280.34 C200.88,278.97 195.11,251.32 193.40,240.50 C190.71,223.45 190.52,195.78 192.91,169.88 C195.41,142.87 195.49,136.31 193.46,128.52 C191.35,120.40 189.07,117.10 181.02,110.52 C168.27,100.09 164.57,91.10 167.36,77.39 C169.07,69.02 174.78,57.46 182.47,46.79 C187.08,40.40 189.00,39.19 189.00,42.70 C189.00,45.89 196.07,58.68 201.60,65.50 C209.60,75.36 212.29,81.63 212.77,91.50 C213.16,99.55 212.69,102.51 206.50,131.50 C201.62,154.33 202.94,168.86 211.97,191.71 C217.71,206.23 219.27,213.66 219.28,226.50 C219.29,239.75 216.93,250.54 211.17,263.56 C206.33,274.51 202.41,281.47 201.72,280.34 ZM 217.57 272.28 C224.21,262.20 228.52,250.00 229.99,237.10 C230.73,230.60 230.59,224.36 229.39,211.50 C227.60,192.30 228.01,180.86 230.77,172.67 L 232.67 167.07 L 228.36 159.88 C223.66,152.02 220.48,143.28 219.51,135.48 C218.35,126.24 222.62,112.27 229.87,101.59 L 231.85 98.68 L 232.47 102.59 C234.90,118.04 240.42,130.65 251.89,146.99 C261.90,161.23 271.84,173.22 273.04,172.47 C274.66,171.47 274.10,164.67 272.14,161.50 C271.12,159.85 266.79,154.73 262.52,150.12 C250.99,137.65 247.46,127.81 250.02,115.32 C251.85,106.43 252.13,106.32 256.68,112.78 C258.93,115.97 265.21,123.21 270.64,128.88 C276.06,134.54 281.85,141.49 283.50,144.34 C286.19,148.97 286.50,150.37 286.50,158.00 C286.49,165.84 286.20,167.06 282.76,173.77 L 279.04 181.04 L 284.05 189.77 C290.43,200.89 292.07,206.23 292.70,218.00 C293.51,233.28 289.98,244.74 280.67,257.00 L 276.50 262.50 L 275.89 250.50 C274.87,230.32 268.36,215.54 248.50,188.24 L 238.50 174.50 L 238.17 178.50 C237.69,184.38 239.26,188.48 246.02,199.03 C253.68,210.98 255.36,216.54 254.81,228.09 C254.43,235.97 253.96,237.75 250.15,245.42 C243.68,258.50 232.36,268.73 218.59,273.97 L 215.74 275.05 L 217.57 272.28 Z" fill="white"/>
  </g>
</svg>